<svg width="16" height="16" viewBox="0 0 16 16" fill="none" xmlns="http://www.w3.org/2000/svg">
<path d="M8 16C12.4183 16 16 12.4183 16 8C16 3.58172 12.4183 0 8 0C3.58172 0 0 3.58172 0 8C0 12.4183 3.58172 16 8 16Z" fill="#1D4994"/>
<path d="M7.428 10.8572C7.27646 10.8571 7.13114 10.7969 7.024 10.6897L4.73829 8.40401C4.6342 8.29624 4.5766 8.1519 4.5779 8.00207C4.5792 7.85224 4.6393 7.70892 4.74525 7.60297C4.8512 7.49703 4.99452 7.43693 5.14434 7.43563C5.29417 7.43433 5.43852 7.49192 5.54629 7.59601L7.4 9.44973L11 5.33544C11.0475 5.27325 11.1074 5.2215 11.1757 5.18338C11.2441 5.14527 11.3196 5.12161 11.3975 5.11388C11.4754 5.10615 11.5541 5.1145 11.6286 5.13843C11.7031 5.16235 11.772 5.20134 11.8308 5.25297C11.8897 5.30459 11.9373 5.36776 11.9707 5.43855C12.0041 5.50934 12.0226 5.58624 12.0251 5.66449C12.0276 5.74273 12.0139 5.82065 11.985 5.89341C11.9562 5.96616 11.9126 6.03221 11.8571 6.08744L7.85714 10.6589C7.80564 10.7177 7.74261 10.7654 7.67193 10.7989C7.60126 10.8324 7.52446 10.8511 7.44629 10.8537L7.428 10.8572Z" fill="white"/>
</svg>
