<svg width="770" height="48" viewBox="0 0 770 48" fill="none" xmlns="http://www.w3.org/2000/svg">
<path d="M98 7.5H670.5" stroke="#DFDFDF" stroke-dasharray="4 4"/>
<path d="M106 8C106 11.3137 103.314 14 100 14C96.6863 14 94 11.3137 94 8C94 4.68629 96.6863 2 100 2C103.314 2 106 4.68629 106 8Z" fill="white" stroke="#DC4C4C" stroke-width="4"/>
<path d="M9.44831 30.576H18.6963V32.304H15.0643V42H13.0643V32.304H9.44831V30.576ZM19.9727 30.576H21.9727V35.12H27.1727V30.576H29.1727V42H27.1727V36.848H21.9727V42H19.9727V30.576ZM36.4316 31.936C35.8236 31.936 35.2956 32.0587 34.8476 32.304C34.4102 32.5493 34.0529 32.88 33.7756 33.296C33.4982 33.7013 33.2902 34.1653 33.1516 34.688C33.0236 35.2107 32.9596 35.744 32.9596 36.288C32.9596 36.832 33.0236 37.3653 33.1516 37.888C33.2902 38.4107 33.4982 38.88 33.7756 39.296C34.0529 39.7013 34.4102 40.0267 34.8476 40.272C35.2956 40.5173 35.8236 40.64 36.4316 40.64C37.0396 40.64 37.5622 40.5173 37.9996 40.272C38.4476 40.0267 38.8102 39.7013 39.0876 39.296C39.3649 38.88 39.5676 38.4107 39.6956 37.888C39.8342 37.3653 39.9036 36.832 39.9036 36.288C39.9036 35.744 39.8342 35.2107 39.6956 34.688C39.5676 34.1653 39.3649 33.7013 39.0876 33.296C38.8102 32.88 38.4476 32.5493 37.9996 32.304C37.5622 32.0587 37.0396 31.936 36.4316 31.936ZM36.4316 30.304C37.2849 30.304 38.0476 30.464 38.7196 30.784C39.4022 31.104 39.9782 31.536 40.4476 32.08C40.9169 32.624 41.2742 33.2587 41.5196 33.984C41.7756 34.7093 41.9036 35.4773 41.9036 36.288C41.9036 37.1093 41.7756 37.8827 41.5196 38.608C41.2742 39.3333 40.9169 39.968 40.4476 40.512C39.9782 41.056 39.4022 41.488 38.7196 41.808C38.0476 42.1173 37.2849 42.272 36.4316 42.272C35.5782 42.272 34.8102 42.1173 34.1276 41.808C33.4556 41.488 32.8849 41.056 32.4156 40.512C31.9462 39.968 31.5836 39.3333 31.3276 38.608C31.0822 37.8827 30.9596 37.1093 30.9596 36.288C30.9596 35.4773 31.0822 34.7093 31.3276 33.984C31.5836 33.2587 31.9462 32.624 32.4156 32.08C32.8849 31.536 33.4556 31.104 34.1276 30.784C34.8102 30.464 35.5782 30.304 36.4316 30.304ZM35.3436 29.472H33.8716L35.5836 27.184H37.3596L39.0876 29.472H37.5996L36.4636 28.032L35.3436 29.472ZM43.6438 30.576H45.7558L50.9718 38.992H51.0038V30.576H52.9078V42H50.7958L45.5958 33.6H45.5478V42H43.6438V30.576ZM65.2387 42H63.9587L63.6547 40.656C63.1214 41.264 62.588 41.6853 62.0547 41.92C61.5214 42.1547 60.908 42.272 60.2147 42.272C59.3614 42.272 58.5934 42.1173 57.9107 41.808C57.2387 41.488 56.668 41.056 56.1987 40.512C55.7294 39.968 55.3667 39.3333 55.1107 38.608C54.8654 37.8827 54.7427 37.1093 54.7427 36.288C54.7427 35.4773 54.8654 34.7093 55.1107 33.984C55.3667 33.2587 55.7294 32.624 56.1987 32.08C56.668 31.536 57.2387 31.104 57.9107 30.784C58.5934 30.464 59.3614 30.304 60.2147 30.304C60.8334 30.304 61.42 30.3893 61.9747 30.56C62.54 30.72 63.0414 30.9653 63.4787 31.296C63.916 31.616 64.2787 32.0213 64.5667 32.512C64.8547 33.0027 65.036 33.568 65.1107 34.208H63.1587C63.1054 33.8347 62.988 33.5093 62.8067 33.232C62.636 32.944 62.4174 32.704 62.1507 32.512C61.884 32.32 61.5854 32.176 61.2547 32.08C60.924 31.984 60.5774 31.936 60.2147 31.936C59.6067 31.936 59.0787 32.0587 58.6307 32.304C58.1934 32.5493 57.836 32.88 57.5587 33.296C57.2814 33.7013 57.0734 34.1653 56.9347 34.688C56.8067 35.2107 56.7427 35.744 56.7427 36.288C56.7427 36.832 56.8067 37.3653 56.9347 37.888C57.0734 38.4107 57.2814 38.88 57.5587 39.296C57.836 39.7013 58.1934 40.0267 58.6307 40.272C59.0787 40.5173 59.6067 40.64 60.2147 40.64C60.7267 40.6507 61.18 40.5867 61.5747 40.448C61.9694 40.2987 62.3 40.0907 62.5667 39.824C62.844 39.5467 63.052 39.2107 63.1907 38.816C63.3294 38.4213 63.404 37.984 63.4147 37.504H60.3747V35.984H65.2387V42ZM70.7764 30.576H80.0244V32.304H76.3924V42H74.3924V32.304H70.7764V30.576ZM81.3488 30.576H83.3488V42H81.3488V30.576ZM85.7219 30.576H87.8339L93.0499 38.992H93.0819V30.576H94.9859V42H92.8739L87.6739 33.6H87.6259V42H85.7219V30.576ZM101.802 30.576H103.802V35.776L108.89 30.576H111.354L106.794 35.136L111.674 42H109.178L105.434 36.544L103.802 38.16V42H101.802V30.576ZM112.707 30.576H114.707V35.12H119.907V30.576H121.907V42H119.907V36.848H114.707V42H112.707V30.576ZM129.166 31.936C128.558 31.936 128.03 32.0587 127.582 32.304C127.145 32.5493 126.787 32.88 126.51 33.296C126.233 33.7013 126.025 34.1653 125.886 34.688C125.758 35.2107 125.694 35.744 125.694 36.288C125.694 36.832 125.758 37.3653 125.886 37.888C126.025 38.4107 126.233 38.88 126.51 39.296C126.787 39.7013 127.145 40.0267 127.582 40.272C128.03 40.5173 128.558 40.64 129.166 40.64C129.774 40.64 130.297 40.5173 130.734 40.272C131.182 40.0267 131.545 39.7013 131.822 39.296C132.099 38.88 132.302 38.4107 132.43 37.888C132.569 37.3653 132.638 36.832 132.638 36.288C132.638 35.744 132.569 35.2107 132.43 34.688C132.302 34.1653 132.099 33.7013 131.822 33.296C131.545 32.88 131.182 32.5493 130.734 32.304C130.297 32.0587 129.774 31.936 129.166 31.936ZM129.166 30.304C130.019 30.304 130.782 30.464 131.454 30.784C132.137 31.104 132.713 31.536 133.182 32.08C133.651 32.624 134.009 33.2587 134.254 33.984C134.51 34.7093 134.638 35.4773 134.638 36.288C134.638 37.1093 134.51 37.8827 134.254 38.608C134.009 39.3333 133.651 39.968 133.182 40.512C132.713 41.056 132.137 41.488 131.454 41.808C130.782 42.1173 130.019 42.272 129.166 42.272C128.313 42.272 127.545 42.1173 126.862 41.808C126.19 41.488 125.619 41.056 125.15 40.512C124.681 39.968 124.318 39.3333 124.062 38.608C123.817 37.8827 123.694 37.1093 123.694 36.288C123.694 35.4773 123.817 34.7093 124.062 33.984C124.318 33.2587 124.681 32.624 125.15 32.08C125.619 31.536 126.19 31.104 126.862 30.784C127.545 30.464 128.313 30.304 129.166 30.304ZM139.514 30.576H141.642L146.042 42H143.898L142.826 38.976H138.266L137.194 42H135.13L139.514 30.576ZM138.81 37.456H142.298L140.586 32.544H140.538L138.81 37.456ZM139.818 26.288C140.106 26.256 140.352 26.24 140.554 26.24C140.714 26.24 140.89 26.2613 141.082 26.304C141.285 26.3467 141.466 26.4213 141.626 26.528C141.797 26.624 141.936 26.7573 142.042 26.928C142.16 27.0987 142.218 27.312 142.218 27.568C142.218 27.792 142.144 28.0107 141.994 28.224C141.845 28.4373 141.552 28.592 141.114 28.688L141.082 29.04H140.202V28.352C140.608 28.32 140.874 28.2347 141.002 28.096C141.141 27.9573 141.21 27.8187 141.21 27.68C141.21 27.4347 141.146 27.264 141.018 27.168C140.901 27.0613 140.698 27.008 140.41 27.008C140.208 27.008 140.021 27.0293 139.85 27.072L139.818 26.288ZM147.05 30.576H149.162L154.378 38.992H154.41V30.576H156.314V42H154.202L149.002 33.6H148.954V42H147.05V30.576ZM161.834 30.576H163.914L166.778 39.616H166.81L169.738 30.576H171.77L167.866 42H165.642L161.834 30.576ZM175.092 30.576H177.22L181.62 42H179.476L178.404 38.976H173.844L172.772 42H170.708L175.092 30.576ZM174.388 37.456H177.876L176.164 32.544H176.116L174.388 37.456ZM184.497 37.52L180.209 30.576H182.529L185.553 35.696L188.529 30.576H190.769L186.497 37.52V42H184.497V37.52Z" fill="#333333"/>
<path d="M290 15.5C289.498 15.5 289.009 15.4508 288.536 15.3572L288.439 15.8477C287.389 15.6401 286.413 15.2272 285.555 14.6525L285.833 14.237C285.015 13.6893 284.311 12.9849 283.763 12.1668L283.347 12.4449C282.773 11.5866 282.36 10.6109 282.152 9.5613L282.643 9.46426C282.549 8.99108 282.5 8.50153 282.5 8C282.5 7.49847 282.549 7.00892 282.643 6.53574L282.152 6.4387C282.36 5.38915 282.773 4.41341 283.347 3.55507L283.763 3.83323C284.311 3.01513 285.015 2.31067 285.833 1.76296L285.555 1.34748C286.413 0.772837 287.389 0.359906 288.439 0.152272L288.536 0.642766C289.009 0.549158 289.498 0.5 290 0.5C290.502 0.5 290.991 0.549158 291.464 0.642766L291.561 0.152272C292.611 0.359907 293.587 0.772837 294.445 1.34748L294.167 1.76296C294.985 2.31067 295.689 3.01513 296.237 3.83324L296.653 3.55508C297.227 4.41341 297.64 5.38915 297.848 6.4387L297.357 6.53574C297.451 7.00892 297.5 7.49847 297.5 8C297.5 8.50153 297.451 8.99108 297.357 9.46426L297.848 9.5613C297.64 10.6109 297.227 11.5866 296.653 12.4449L296.237 12.1668C295.689 12.9849 294.985 13.6893 294.167 14.237L294.445 14.6525C293.587 15.2272 292.611 15.6401 291.561 15.8477L291.464 15.3572C290.991 15.4508 290.502 15.5 290 15.5Z" fill="white" stroke="#DFDFDF" stroke-dasharray="4 4"/>
<path d="M229.052 35.296H232.172V36.928H229.052V40.368H231.02C231.799 40.368 232.433 40.2667 232.924 40.064C233.425 39.8507 233.815 39.5627 234.092 39.2C234.38 38.8267 234.572 38.3947 234.668 37.904C234.775 37.4027 234.828 36.864 234.828 36.288C234.828 35.712 234.775 35.1787 234.668 34.688C234.572 34.1867 234.38 33.7547 234.092 33.392C233.815 33.0187 233.425 32.7307 232.924 32.528C232.433 32.3147 231.799 32.208 231.02 32.208H229.052V35.296ZM227.052 36.928H225.98V35.296H227.052V30.576H231.788C232.663 30.576 233.42 30.7253 234.06 31.024C234.7 31.3227 235.223 31.7333 235.628 32.256C236.033 32.768 236.332 33.3707 236.524 34.064C236.727 34.7573 236.828 35.4987 236.828 36.288C236.828 37.0773 236.727 37.8187 236.524 38.512C236.332 39.2053 236.033 39.8133 235.628 40.336C235.223 40.848 234.7 41.2533 234.06 41.552C233.42 41.8507 232.663 42 231.788 42H227.052V36.928ZM241.655 30.576H243.783L248.183 42H246.039L244.967 38.976H240.407L239.335 42H237.271L241.655 30.576ZM240.951 37.456H244.439L242.727 32.544H242.679L240.951 37.456ZM241.063 27.2C241.148 27.648 241.345 27.9627 241.655 28.144C241.975 28.3253 242.348 28.416 242.775 28.416C243.18 28.416 243.527 28.3147 243.815 28.112C244.113 27.9093 244.305 27.6053 244.391 27.2H245.303C245.217 27.9573 244.935 28.5227 244.455 28.896C243.985 29.2693 243.383 29.456 242.647 29.456C241.911 29.456 241.324 29.264 240.887 28.88C240.449 28.496 240.199 27.936 240.135 27.2H241.063ZM249.191 30.576H251.303L256.519 38.992H256.551V30.576H258.455V42H256.343L251.143 33.6H251.095V42H249.191V30.576ZM270.786 42H269.506L269.202 40.656C268.668 41.264 268.135 41.6853 267.602 41.92C267.068 42.1547 266.455 42.272 265.762 42.272C264.908 42.272 264.14 42.1173 263.458 41.808C262.786 41.488 262.215 41.056 261.746 40.512C261.276 39.968 260.914 39.3333 260.658 38.608C260.412 37.8827 260.29 37.1093 260.29 36.288C260.29 35.4773 260.412 34.7093 260.658 33.984C260.914 33.2587 261.276 32.624 261.746 32.08C262.215 31.536 262.786 31.104 263.458 30.784C264.14 30.464 264.908 30.304 265.762 30.304C266.38 30.304 266.967 30.3893 267.522 30.56C268.087 30.72 268.588 30.9653 269.026 31.296C269.463 31.616 269.826 32.0213 270.114 32.512C270.402 33.0027 270.583 33.568 270.658 34.208H268.706C268.652 33.8347 268.535 33.5093 268.354 33.232C268.183 32.944 267.964 32.704 267.698 32.512C267.431 32.32 267.132 32.176 266.802 32.08C266.471 31.984 266.124 31.936 265.762 31.936C265.154 31.936 264.626 32.0587 264.178 32.304C263.74 32.5493 263.383 32.88 263.106 33.296C262.828 33.7013 262.62 34.1653 262.482 34.688C262.354 35.2107 262.29 35.744 262.29 36.288C262.29 36.832 262.354 37.3653 262.482 37.888C262.62 38.4107 262.828 38.88 263.106 39.296C263.383 39.7013 263.74 40.0267 264.178 40.272C264.626 40.5173 265.154 40.64 265.762 40.64C266.274 40.6507 266.727 40.5867 267.122 40.448C267.516 40.2987 267.847 40.0907 268.114 39.824C268.391 39.5467 268.599 39.2107 268.738 38.816C268.876 38.4213 268.951 37.984 268.962 37.504H265.922V35.984H270.786V42ZM277.411 30.576H279.411V35.776L284.499 30.576H286.963L282.403 35.136L287.283 42H284.787L281.043 36.544L279.411 38.16V42H277.411V30.576ZM291.34 37.52L287.052 30.576H289.372L292.396 35.696L295.372 30.576H297.612L293.34 37.52V42H291.34V37.52ZM293.116 27.184H295.276L293.004 29.472H291.676L293.116 27.184ZM303.145 30.576H305.145V35.12H310.345V30.576H312.345V42H310.345V36.848H305.145V42H303.145V30.576ZM319.603 31.936C318.995 31.936 318.467 32.0587 318.019 32.304C317.582 32.5493 317.225 32.88 316.947 33.296C316.67 33.7013 316.462 34.1653 316.323 34.688C316.195 35.2107 316.131 35.744 316.131 36.288C316.131 36.832 316.195 37.3653 316.323 37.888C316.462 38.4107 316.67 38.88 316.947 39.296C317.225 39.7013 317.582 40.0267 318.019 40.272C318.467 40.5173 318.995 40.64 319.603 40.64C320.211 40.64 320.734 40.5173 321.171 40.272C321.619 40.0267 321.982 39.7013 322.259 39.296C322.537 38.88 322.739 38.4107 322.867 37.888C323.006 37.3653 323.075 36.832 323.075 36.288C323.075 35.744 323.006 35.2107 322.867 34.688C322.739 34.1653 322.537 33.7013 322.259 33.296C321.982 32.88 321.619 32.5493 321.171 32.304C320.734 32.0587 320.211 31.936 319.603 31.936ZM319.603 30.304C320.457 30.304 321.219 30.464 321.891 30.784C322.574 31.104 323.15 31.536 323.619 32.08C324.089 32.624 324.446 33.2587 324.691 33.984C324.947 34.7093 325.075 35.4773 325.075 36.288C325.075 37.1093 324.947 37.8827 324.691 38.608C324.446 39.3333 324.089 39.968 323.619 40.512C323.15 41.056 322.574 41.488 321.891 41.808C321.219 42.1173 320.457 42.272 319.603 42.272C318.75 42.272 317.982 42.1173 317.299 41.808C316.627 41.488 316.057 41.056 315.587 40.512C315.118 39.968 314.755 39.3333 314.499 38.608C314.254 37.8827 314.131 37.1093 314.131 36.288C314.131 35.4773 314.254 34.7093 314.499 33.984C314.755 33.2587 315.118 32.624 315.587 32.08C316.057 31.536 316.627 31.104 317.299 30.784C317.982 30.464 318.75 30.304 319.603 30.304ZM318.467 29.504H316.995L318.707 27.216H320.483L322.211 29.504H320.723L319.587 28.064L318.467 29.504ZM322.371 25.808L323.827 28.096H322.499L320.227 25.808H322.371ZM332.661 38.192C332.661 38.6293 332.735 39.0027 332.885 39.312C333.034 39.6213 333.242 39.8773 333.509 40.08C333.775 40.272 334.079 40.416 334.421 40.512C334.773 40.5973 335.151 40.64 335.557 40.64C335.994 40.64 336.367 40.592 336.677 40.496C336.986 40.3893 337.237 40.256 337.429 40.096C337.621 39.936 337.759 39.7547 337.845 39.552C337.93 39.3387 337.973 39.1253 337.973 38.912C337.973 38.4747 337.871 38.1547 337.669 37.952C337.477 37.7387 337.263 37.5893 337.029 37.504C336.623 37.3547 336.149 37.216 335.605 37.088C335.071 36.9493 334.41 36.7733 333.621 36.56C333.13 36.432 332.719 36.2667 332.389 36.064C332.069 35.8507 331.813 35.616 331.621 35.36C331.429 35.104 331.29 34.832 331.205 34.544C331.13 34.256 331.093 33.9627 331.093 33.664C331.093 33.088 331.21 32.592 331.445 32.176C331.69 31.7493 332.01 31.3973 332.405 31.12C332.799 30.8427 333.247 30.64 333.749 30.512C334.25 30.3733 334.757 30.304 335.269 30.304C335.866 30.304 336.426 30.384 336.949 30.544C337.482 30.6933 337.946 30.9227 338.341 31.232C338.746 31.5413 339.066 31.9253 339.301 32.384C339.535 32.832 339.653 33.3547 339.653 33.952H337.653C337.599 33.216 337.349 32.6987 336.901 32.4C336.453 32.0907 335.882 31.936 335.189 31.936C334.954 31.936 334.714 31.9627 334.469 32.016C334.223 32.0587 333.999 32.1387 333.797 32.256C333.594 32.3627 333.423 32.512 333.285 32.704C333.157 32.896 333.093 33.136 333.093 33.424C333.093 33.8293 333.215 34.1493 333.461 34.384C333.717 34.608 334.047 34.7787 334.453 34.896C334.495 34.9067 334.661 34.9547 334.949 35.04C335.247 35.1147 335.578 35.2 335.941 35.296C336.303 35.392 336.655 35.488 336.997 35.584C337.349 35.6693 337.599 35.7333 337.749 35.776C338.122 35.8933 338.447 36.0533 338.725 36.256C339.002 36.4587 339.231 36.6933 339.413 36.96C339.605 37.216 339.743 37.4933 339.829 37.792C339.925 38.0907 339.973 38.3893 339.973 38.688C339.973 39.328 339.839 39.8773 339.573 40.336C339.317 40.784 338.975 41.152 338.549 41.44C338.122 41.728 337.637 41.936 337.093 42.064C336.549 42.2027 335.994 42.272 335.429 42.272C334.778 42.272 334.165 42.192 333.589 42.032C333.013 41.872 332.511 41.6267 332.085 41.296C331.658 40.9653 331.317 40.544 331.061 40.032C330.805 39.5093 330.671 38.896 330.661 38.192H332.661ZM353.596 30.688L354.636 32.496L353.404 33.2C353.148 33.3493 352.886 33.472 352.62 33.568C352.353 33.664 352.097 33.712 351.852 33.712H351.708C351.665 33.712 351.617 33.7067 351.564 33.696C351.894 34.5067 352.06 35.3707 352.06 36.288C352.06 37.1093 351.932 37.8827 351.676 38.608C351.43 39.3333 351.073 39.968 350.604 40.512C350.134 41.056 349.558 41.488 348.876 41.808C348.204 42.1173 347.441 42.272 346.588 42.272C345.734 42.272 344.966 42.1173 344.284 41.808C343.612 41.488 343.041 41.056 342.572 40.512C342.102 39.968 341.74 39.3333 341.484 38.608C341.238 37.8827 341.116 37.1093 341.116 36.288C341.116 35.4773 341.238 34.7093 341.484 33.984C341.74 33.2587 342.102 32.624 342.572 32.08C343.041 31.536 343.612 31.104 344.284 30.784C344.966 30.464 345.734 30.304 346.588 30.304C347.59 30.304 348.465 30.5173 349.212 30.944C349.958 31.3707 350.566 31.9413 351.036 32.656C351.142 32.752 351.302 32.8 351.516 32.8C351.665 32.8 351.836 32.768 352.028 32.704C352.23 32.6293 352.47 32.5173 352.748 32.368L352.22 31.472L353.596 30.688ZM346.588 31.936C345.98 31.936 345.452 32.0587 345.004 32.304C344.566 32.5493 344.209 32.88 343.932 33.296C343.654 33.7013 343.446 34.1653 343.308 34.688C343.18 35.2107 343.116 35.744 343.116 36.288C343.116 36.832 343.18 37.3653 343.308 37.888C343.446 38.4107 343.654 38.88 343.932 39.296C344.209 39.7013 344.566 40.0267 345.004 40.272C345.452 40.5173 345.98 40.64 346.588 40.64C347.196 40.64 347.718 40.5173 348.156 40.272C348.604 40.0267 348.966 39.7013 349.244 39.296C349.521 38.88 349.724 38.4107 349.852 37.888C349.99 37.3653 350.06 36.832 350.06 36.288C350.06 35.744 349.99 35.2107 349.852 34.688C349.724 34.1653 349.521 33.7013 349.244 33.296C348.966 32.88 348.604 32.5493 348.156 32.304C347.718 32.0587 347.196 31.936 346.588 31.936Z" fill="#DFDFDF"/>
<path d="M480 15.5C479.498 15.5 479.009 15.4508 478.536 15.3572L478.439 15.8477C477.389 15.6401 476.413 15.2272 475.555 14.6525L475.833 14.237C475.015 13.6893 474.311 12.9849 473.763 12.1668L473.347 12.4449C472.773 11.5866 472.36 10.6109 472.152 9.5613L472.643 9.46426C472.549 8.99108 472.5 8.50153 472.5 8C472.5 7.49847 472.549 7.00892 472.643 6.53574L472.152 6.4387C472.36 5.38915 472.773 4.41341 473.347 3.55507L473.763 3.83323C474.311 3.01513 475.015 2.31067 475.833 1.76296L475.555 1.34748C476.413 0.772837 477.389 0.359906 478.439 0.152272L478.536 0.642766C479.009 0.549158 479.498 0.5 480 0.5C480.502 0.5 480.991 0.549158 481.464 0.642766L481.561 0.152272C482.611 0.359907 483.587 0.772837 484.445 1.34748L484.167 1.76296C484.985 2.31067 485.689 3.01513 486.237 3.83324L486.653 3.55508C487.227 4.41341 487.64 5.38915 487.848 6.4387L487.357 6.53574C487.451 7.00892 487.5 7.49847 487.5 8C487.5 8.50153 487.451 8.99108 487.357 9.46426L487.848 9.5613C487.64 10.6109 487.227 11.5866 486.653 12.4449L486.237 12.1668C485.689 12.9849 484.985 13.6893 484.167 14.237L484.445 14.6525C483.587 15.2272 482.611 15.6401 481.561 15.8477L481.464 15.3572C480.991 15.4508 480.502 15.5 480 15.5Z" fill="white" stroke="#DFDFDF" stroke-dasharray="4 4"/>
<path d="M389.052 30.576H394.092C394.903 30.576 395.564 30.6933 396.076 30.928C396.588 31.1627 396.983 31.456 397.26 31.808C397.537 32.16 397.724 32.544 397.82 32.96C397.927 33.376 397.98 33.76 397.98 34.112C397.98 34.464 397.927 34.848 397.82 35.264C397.724 35.6693 397.537 36.048 397.26 36.4C396.983 36.752 396.588 37.0453 396.076 37.28C395.564 37.504 394.903 37.616 394.092 37.616H391.052V42H389.052V30.576ZM391.052 35.984H393.98C394.204 35.984 394.433 35.952 394.668 35.888C394.903 35.824 395.116 35.7227 395.308 35.584C395.511 35.4347 395.671 35.2427 395.788 35.008C395.916 34.7627 395.98 34.4587 395.98 34.096C395.98 33.7227 395.927 33.4133 395.82 33.168C395.713 32.9227 395.569 32.7307 395.388 32.592C395.207 32.4427 394.999 32.3413 394.764 32.288C394.529 32.2347 394.279 32.208 394.012 32.208H391.052V35.984ZM399.676 30.576H401.676V35.12H406.876V30.576H408.876V42H406.876V36.848H401.676V42H399.676V30.576ZM411.271 30.576H419.495V32.304H413.271V35.296H419.031V36.928H413.271V40.272H419.607V42H411.271V30.576ZM414.263 29.472H412.791L414.503 27.184H416.279L418.007 29.472H416.519L415.383 28.032L414.263 29.472ZM425.802 30.576H430.538C431.413 30.576 432.17 30.7253 432.81 31.024C433.45 31.3227 433.973 31.7333 434.378 32.256C434.783 32.768 435.082 33.3707 435.274 34.064C435.477 34.7573 435.578 35.4987 435.578 36.288C435.578 37.0773 435.477 37.8187 435.274 38.512C435.082 39.2053 434.783 39.8133 434.378 40.336C433.973 40.848 433.45 41.2533 432.81 41.552C432.17 41.8507 431.413 42 430.538 42H425.802V30.576ZM427.802 40.368H429.77C430.549 40.368 431.183 40.2667 431.674 40.064C432.175 39.8507 432.565 39.5627 432.842 39.2C433.13 38.8267 433.322 38.3947 433.418 37.904C433.525 37.4027 433.578 36.864 433.578 36.288C433.578 35.712 433.525 35.1787 433.418 34.688C433.322 34.1867 433.13 33.7547 432.842 33.392C432.565 33.0187 432.175 32.7307 431.674 32.528C431.183 32.3147 430.549 32.208 429.77 32.208H427.802V40.368ZM437.221 30.576H439.221V37.232C439.221 37.616 439.237 38.0053 439.269 38.4C439.311 38.7947 439.418 39.152 439.589 39.472C439.77 39.7813 440.037 40.0373 440.389 40.24C440.751 40.4427 441.258 40.544 441.909 40.544C442.559 40.544 443.061 40.4427 443.413 40.24C443.775 40.0373 444.042 39.7813 444.213 39.472C444.394 39.152 444.501 38.7947 444.533 38.4C444.575 38.0053 444.597 37.616 444.597 37.232V30.576H446.597V37.888C446.597 38.624 446.485 39.264 446.261 39.808C446.037 40.352 445.717 40.8107 445.301 41.184C444.895 41.5467 444.405 41.8187 443.829 42C443.253 42.1813 442.613 42.272 441.909 42.272C441.205 42.272 440.565 42.1813 439.989 42C439.413 41.8187 438.917 41.5467 438.501 41.184C438.095 40.8107 437.781 40.352 437.557 39.808C437.333 39.264 437.221 38.624 437.221 37.888V30.576ZM451.872 37.52L447.584 30.576H449.904L452.928 35.696L455.904 30.576H458.144L453.872 37.52V42H451.872V37.52ZM459.271 30.576H467.495V32.304H461.271V35.296H467.031V36.928H461.271V40.272H467.607V42H459.271V30.576ZM462.295 29.776H460.823L462.535 27.488H464.311L466.039 29.776H464.551L463.415 28.336L462.295 29.776ZM462.519 44.528V42.8H464.343V44.528H462.519ZM468.261 30.576H477.509V32.304H473.877V42H471.877V32.304H468.261V30.576ZM483.286 30.576H485.286V35.776L490.374 30.576H492.838L488.278 35.136L493.158 42H490.662L486.918 36.544L485.286 38.16V42H483.286V30.576ZM494.191 30.576H496.191V35.12H501.391V30.576H503.391V42H501.391V36.848H496.191V42H494.191V30.576ZM510.65 31.936C510.042 31.936 509.514 32.0587 509.066 32.304C508.629 32.5493 508.272 32.88 507.994 33.296C507.717 33.7013 507.509 34.1653 507.37 34.688C507.242 35.2107 507.178 35.744 507.178 36.288C507.178 36.832 507.242 37.3653 507.37 37.888C507.509 38.4107 507.717 38.88 507.994 39.296C508.272 39.7013 508.629 40.0267 509.066 40.272C509.514 40.5173 510.042 40.64 510.65 40.64C511.258 40.64 511.781 40.5173 512.218 40.272C512.666 40.0267 513.029 39.7013 513.306 39.296C513.584 38.88 513.786 38.4107 513.914 37.888C514.053 37.3653 514.122 36.832 514.122 36.288C514.122 35.744 514.053 35.2107 513.914 34.688C513.786 34.1653 513.584 33.7013 513.306 33.296C513.029 32.88 512.666 32.5493 512.218 32.304C511.781 32.0587 511.258 31.936 510.65 31.936ZM510.65 30.304C511.504 30.304 512.266 30.464 512.938 30.784C513.621 31.104 514.197 31.536 514.666 32.08C515.136 32.624 515.493 33.2587 515.738 33.984C515.994 34.7093 516.122 35.4773 516.122 36.288C516.122 37.1093 515.994 37.8827 515.738 38.608C515.493 39.3333 515.136 39.968 514.666 40.512C514.197 41.056 513.621 41.488 512.938 41.808C512.266 42.1173 511.504 42.272 510.65 42.272C509.797 42.272 509.029 42.1173 508.346 41.808C507.674 41.488 507.104 41.056 506.634 40.512C506.165 39.968 505.802 39.3333 505.546 38.608C505.301 37.8827 505.178 37.1093 505.178 36.288C505.178 35.4773 505.301 34.7093 505.546 33.984C505.802 33.2587 506.165 32.624 506.634 32.08C507.104 31.536 507.674 31.104 508.346 30.784C509.029 30.464 509.797 30.304 510.65 30.304ZM520.999 30.576H523.127L527.527 42H525.383L524.311 38.976H519.751L518.679 42H516.615L520.999 30.576ZM520.295 37.456H523.783L522.071 32.544H522.023L520.295 37.456ZM521.303 26.288C521.591 26.256 521.836 26.24 522.039 26.24C522.199 26.24 522.375 26.2613 522.567 26.304C522.769 26.3467 522.951 26.4213 523.111 26.528C523.281 26.624 523.42 26.7573 523.527 26.928C523.644 27.0987 523.703 27.312 523.703 27.568C523.703 27.792 523.628 28.0107 523.479 28.224C523.329 28.4373 523.036 28.592 522.599 28.688L522.567 29.04H521.687V28.352C522.092 28.32 522.359 28.2347 522.487 28.096C522.625 27.9573 522.695 27.8187 522.695 27.68C522.695 27.4347 522.631 27.264 522.503 27.168C522.385 27.0613 522.183 27.008 521.895 27.008C521.692 27.008 521.505 27.0293 521.335 27.072L521.303 26.288ZM528.534 30.576H530.646L535.862 38.992H535.894V30.576H537.798V42H535.686L530.486 33.6H530.438V42H528.534V30.576ZM543.318 30.576H545.398L548.262 39.616H548.294L551.222 30.576H553.254L549.35 42H547.126L543.318 30.576ZM556.577 30.576H558.705L563.105 42H560.961L559.889 38.976H555.329L554.257 42H552.193L556.577 30.576ZM555.873 37.456H559.361L557.649 32.544H557.601L555.873 37.456ZM565.981 37.52L561.693 30.576H564.013L567.037 35.696L570.013 30.576H572.253L567.981 37.52V42H565.981V37.52Z" fill="#DFDFDF"/>
<path d="M670 15.5C669.498 15.5 669.009 15.4508 668.536 15.3572L668.439 15.8477C667.389 15.6401 666.413 15.2272 665.555 14.6525L665.833 14.237C665.015 13.6893 664.311 12.9849 663.763 12.1668L663.347 12.4449C662.773 11.5866 662.36 10.6109 662.152 9.5613L662.643 9.46426C662.549 8.99108 662.5 8.50153 662.5 8C662.5 7.49847 662.549 7.00892 662.643 6.53574L662.152 6.4387C662.36 5.38915 662.773 4.41341 663.347 3.55507L663.763 3.83323C664.311 3.01513 665.015 2.31067 665.833 1.76296L665.555 1.34748C666.413 0.772837 667.389 0.359906 668.439 0.152272L668.536 0.642766C669.009 0.549158 669.498 0.5 670 0.5C670.502 0.5 670.991 0.549158 671.464 0.642766L671.561 0.152272C672.611 0.359907 673.587 0.772837 674.445 1.34748L674.167 1.76296C674.985 2.31067 675.689 3.01513 676.237 3.83324L676.653 3.55508C677.227 4.41341 677.64 5.38915 677.848 6.4387L677.357 6.53574C677.451 7.00892 677.5 7.49847 677.5 8C677.5 8.50153 677.451 8.99108 677.357 9.46426L677.848 9.5613C677.64 10.6109 677.227 11.5866 676.653 12.4449L676.237 12.1668C675.689 12.9849 674.985 13.6893 674.167 14.237L674.445 14.6525C673.587 15.2272 672.611 15.6401 671.561 15.8477L671.464 15.3572C670.991 15.4508 670.502 15.5 670 15.5Z" fill="white" stroke="#DFDFDF" stroke-dasharray="4 4"/>
<path d="M614.466 30.576H616.466V35.776L621.554 30.576H624.018L619.458 35.136L624.338 42H621.842L618.098 36.544L616.466 38.16V42H614.466V30.576ZM628.395 37.52L624.107 30.576H626.427L629.451 35.696L632.427 30.576H634.667L630.395 37.52V42H628.395V37.52ZM630.171 27.184H632.331L630.059 29.472H628.731L630.171 27.184ZM640.199 30.576H642.199V35.12H647.399V30.576H649.399V42H647.399V36.848H642.199V42H640.199V30.576ZM663.666 30.688L664.706 32.496L663.474 33.2C663.218 33.3493 662.957 33.472 662.69 33.568C662.423 33.664 662.167 33.712 661.922 33.712H661.778C661.735 33.712 661.687 33.7067 661.634 33.696C661.965 34.5067 662.13 35.3707 662.13 36.288C662.13 37.1093 662.002 37.8827 661.746 38.608C661.501 39.3333 661.143 39.968 660.674 40.512C660.205 41.056 659.629 41.488 658.946 41.808C658.274 42.1173 657.511 42.272 656.658 42.272C655.805 42.272 655.037 42.1173 654.354 41.808C653.682 41.488 653.111 41.056 652.642 40.512C652.173 39.968 651.81 39.3333 651.554 38.608C651.309 37.8827 651.186 37.1093 651.186 36.288C651.186 35.4773 651.309 34.7093 651.554 33.984C651.81 33.2587 652.173 32.624 652.642 32.08C653.111 31.536 653.682 31.104 654.354 30.784C655.037 30.464 655.805 30.304 656.658 30.304C657.661 30.304 658.535 30.5173 659.282 30.944C660.029 31.3707 660.637 31.9413 661.106 32.656C661.213 32.752 661.373 32.8 661.586 32.8C661.735 32.8 661.906 32.768 662.098 32.704C662.301 32.6293 662.541 32.5173 662.818 32.368L662.29 31.472L663.666 30.688ZM656.658 31.936C656.05 31.936 655.522 32.0587 655.074 32.304C654.637 32.5493 654.279 32.88 654.002 33.296C653.725 33.7013 653.517 34.1653 653.378 34.688C653.25 35.2107 653.186 35.744 653.186 36.288C653.186 36.832 653.25 37.3653 653.378 37.888C653.517 38.4107 653.725 38.88 654.002 39.296C654.279 39.7013 654.637 40.0267 655.074 40.272C655.522 40.5173 656.05 40.64 656.658 40.64C657.266 40.64 657.789 40.5173 658.226 40.272C658.674 40.0267 659.037 39.7013 659.314 39.296C659.591 38.88 659.794 38.4107 659.922 37.888C660.061 37.3653 660.13 36.832 660.13 36.288C660.13 35.744 660.061 35.2107 659.922 34.688C659.794 34.1653 659.591 33.7013 659.314 33.296C659.037 32.88 658.674 32.5493 658.226 32.304C657.789 32.0587 657.266 31.936 656.658 31.936ZM655.778 45.168V43.44H657.602V45.168H655.778ZM665.45 30.576H670.49C671.301 30.576 671.962 30.6933 672.474 30.928C672.986 31.1627 673.381 31.456 673.658 31.808C673.936 32.16 674.122 32.544 674.218 32.96C674.325 33.376 674.378 33.76 674.378 34.112C674.378 34.464 674.325 34.848 674.218 35.264C674.122 35.6693 673.936 36.048 673.658 36.4C673.381 36.752 672.986 37.0453 672.474 37.28C671.962 37.504 671.301 37.616 670.49 37.616H667.45V42H665.45V30.576ZM667.45 35.984H670.378C670.602 35.984 670.832 35.952 671.066 35.888C671.301 35.824 671.514 35.7227 671.706 35.584C671.909 35.4347 672.069 35.2427 672.186 35.008C672.314 34.7627 672.378 34.4587 672.378 34.096C672.378 33.7227 672.325 33.4133 672.218 33.168C672.112 32.9227 671.968 32.7307 671.786 32.592C671.605 32.4427 671.397 32.3413 671.162 32.288C670.928 32.2347 670.677 32.208 670.41 32.208H667.45V35.984ZM682.575 35.296H685.695V36.928H682.575V40.368H684.543C685.322 40.368 685.957 40.2667 686.447 40.064C686.949 39.8507 687.338 39.5627 687.615 39.2C687.903 38.8267 688.095 38.3947 688.191 37.904C688.298 37.4027 688.351 36.864 688.351 36.288C688.351 35.712 688.298 35.1787 688.191 34.688C688.095 34.1867 687.903 33.7547 687.615 33.392C687.338 33.0187 686.949 32.7307 686.447 32.528C685.957 32.3147 685.322 32.208 684.543 32.208H682.575V35.296ZM680.575 36.928H679.503V35.296H680.575V30.576H685.311C686.186 30.576 686.943 30.7253 687.583 31.024C688.223 31.3227 688.746 31.7333 689.151 32.256C689.557 32.768 689.855 33.3707 690.047 34.064C690.25 34.7573 690.351 35.4987 690.351 36.288C690.351 37.0773 690.25 37.8187 690.047 38.512C689.855 39.2053 689.557 39.8133 689.151 40.336C688.746 40.848 688.223 41.2533 687.583 41.552C686.943 41.8507 686.186 42 685.311 42H680.575V36.928ZM696.986 31.936C696.378 31.936 695.85 32.0587 695.402 32.304C694.965 32.5493 694.608 32.88 694.33 33.296C694.053 33.7013 693.845 34.1653 693.706 34.688C693.578 35.2107 693.514 35.744 693.514 36.288C693.514 36.832 693.578 37.3653 693.706 37.888C693.845 38.4107 694.053 38.88 694.33 39.296C694.608 39.7013 694.965 40.0267 695.402 40.272C695.85 40.5173 696.378 40.64 696.986 40.64C697.594 40.64 698.117 40.5173 698.554 40.272C699.002 40.0267 699.365 39.7013 699.642 39.296C699.92 38.88 700.122 38.4107 700.25 37.888C700.389 37.3653 700.458 36.832 700.458 36.288C700.458 35.744 700.389 35.2107 700.25 34.688C700.122 34.1653 699.92 33.7013 699.642 33.296C699.365 32.88 699.002 32.5493 698.554 32.304C698.117 32.0587 697.594 31.936 696.986 31.936ZM696.986 30.304C697.84 30.304 698.602 30.464 699.274 30.784C699.957 31.104 700.533 31.536 701.002 32.08C701.472 32.624 701.829 33.2587 702.074 33.984C702.33 34.7093 702.458 35.4773 702.458 36.288C702.458 37.1093 702.33 37.8827 702.074 38.608C701.829 39.3333 701.472 39.968 701.002 40.512C700.533 41.056 699.957 41.488 699.274 41.808C698.602 42.1173 697.84 42.272 696.986 42.272C696.133 42.272 695.365 42.1173 694.682 41.808C694.01 41.488 693.44 41.056 692.97 40.512C692.501 39.968 692.138 39.3333 691.882 38.608C691.637 37.8827 691.514 37.1093 691.514 36.288C691.514 35.4773 691.637 34.7093 691.882 33.984C692.138 33.2587 692.501 32.624 692.97 32.08C693.44 31.536 694.01 31.104 694.682 30.784C695.365 30.464 696.133 30.304 696.986 30.304ZM695.85 29.504H694.378L696.09 27.216H697.866L699.594 29.504H698.106L696.97 28.064L695.85 29.504ZM699.754 25.808L701.21 28.096H699.882L697.61 25.808H699.754ZM704.199 30.576H706.311L711.527 38.992H711.559V30.576H713.463V42H711.351L706.151 33.6H706.103V42H704.199V30.576ZM725.793 42H724.513L724.209 40.656C723.676 41.264 723.143 41.6853 722.609 41.92C722.076 42.1547 721.463 42.272 720.769 42.272C719.916 42.272 719.148 42.1173 718.465 41.808C717.793 41.488 717.223 41.056 716.753 40.512C716.284 39.968 715.921 39.3333 715.665 38.608C715.42 37.8827 715.297 37.1093 715.297 36.288C715.297 35.4773 715.42 34.7093 715.665 33.984C715.921 33.2587 716.284 32.624 716.753 32.08C717.223 31.536 717.793 31.104 718.465 30.784C719.148 30.464 719.916 30.304 720.769 30.304C721.388 30.304 721.975 30.3893 722.529 30.56C723.095 30.72 723.596 30.9653 724.033 31.296C724.471 31.616 724.833 32.0213 725.121 32.512C725.409 33.0027 725.591 33.568 725.665 34.208H723.713C723.66 33.8347 723.543 33.5093 723.361 33.232C723.191 32.944 722.972 32.704 722.705 32.512C722.439 32.32 722.14 32.176 721.809 32.08C721.479 31.984 721.132 31.936 720.769 31.936C720.161 31.936 719.633 32.0587 719.185 32.304C718.748 32.5493 718.391 32.88 718.113 33.296C717.836 33.7013 717.628 34.1653 717.489 34.688C717.361 35.2107 717.297 35.744 717.297 36.288C717.297 36.832 717.361 37.3653 717.489 37.888C717.628 38.4107 717.836 38.88 718.113 39.296C718.391 39.7013 718.748 40.0267 719.185 40.272C719.633 40.5173 720.161 40.64 720.769 40.64C721.281 40.6507 721.735 40.5867 722.129 40.448C722.524 40.2987 722.855 40.0907 723.121 39.824C723.399 39.5467 723.607 39.2107 723.745 38.816C723.884 38.4213 723.959 37.984 723.969 37.504H720.929V35.984H725.793V42Z" fill="#DFDFDF"/>
</svg>
